<svg width="80" height="80" viewBox="0 0 80 80" fill="none" xmlns="http://www.w3.org/2000/svg">
<g clip-path="url(#clip0_1_79)">
<rect width="80" height="80" fill="white"/>
<path d="M51.2328 72.4242C42.4724 72.4242 33.5117 71.0097 24.829 71.0097C23.5891 71.0097 22 71.5269 22 69.9619C22 67.9107 22.5274 65.6896 22.9692 63.7014C23.5468 61.1021 23.4145 58.4135 23.4145 55.686C23.4145 49.9092 23.886 44.1538 23.886 38.4763C23.886 35.5095 24.0487 33.9741 26.9769 35.6473C28.1852 36.3378 29.1139 35.9507 30.1202 36.9571C30.8286 37.6654 31.2704 38.3947 31.9014 39.1836C33.0911 40.6706 37.1637 40.3623 38.9739 40.3623C40.2312 40.3623 41.4886 40.3623 42.7459 40.3623C44.3563 40.3623 44.6253 39.6401 45.8368 38.9478C46.8692 38.3579 48.2627 37.9245 48.8754 36.8523C49.1883 36.3047 50.7178 33.9631 50.7614 34.7043C50.9231 37.4546 49.8184 39.7767 49.8184 42.2483C49.8184 44.6604 49.3224 47.6785 49.8446 50.028C50.4997 52.9761 51.2328 56.4305 51.2328 59.458C51.2328 64.0944 51.2328 78.0035 51.2328 73.3671" stroke="black" stroke-width="3" stroke-linecap="round"/>
<path d="M49.3468 47.9063C53.6323 47.9063 57.5815 47.4348 61.8415 47.4348C63.508 47.4348 68.0593 47.1392 68.2067 49.7923C68.3059 51.5776 68.5631 53.9644 68.1805 55.686C67.7651 57.5553 67.1469 59.2345 65.6135 60.4272C64.1678 61.5516 62.0816 61.5762 60.7675 62.6275C58.763 64.2311 54.6688 65.3517 52.1758 65.3517" stroke="black" stroke-width="3" stroke-linecap="round"/>
<path d="M25.772 34.7044C30.5157 31.9275 34.0604 30.4609 39.5502 30.4609C41.2266 30.4609 45.1034 29.9721 45.1034 32.1111C45.1034 34.1643 47.1725 33.6562 47.9324 35.1759" stroke="black" stroke-width="3" stroke-linecap="round"/>
<path d="M32.3729 5C29.6431 5 25.2743 6.08454 27.4222 9.95072C28.0282 11.0415 29.2627 11.1102 30.1202 11.9677C31.0661 12.9136 31.1807 14.6078 32.1372 15.3729C33.3643 16.3547 34.1421 21.0314 34.2589 22.5502C34.3669 23.9538 35.1284 25.4137 34.7042 26.8984C34.3619 28.0963 32.1947 28.1417 31.4299 27.6319" stroke="black" stroke-width="3" stroke-linecap="round"/>
<path d="M42.2744 7.35748C40.3636 8.80504 38.9739 10.3837 38.9739 12.7797C38.9739 14.3139 40.4138 15.1888 41.4361 16.2112C42.7217 17.4968 43.3305 25.2744 40.8599 25.2744" stroke="black" stroke-width="3" stroke-linecap="round"/>
<path d="M46.5242 36.5004C46.1152 36.5802 45.703 36.5938 45.2906 36.6703C44.9018 36.7425 44.4854 36.8858 44.0886 36.8969C44.0064 36.8991 43.6646 36.9009 43.7613 36.9976C43.8642 37.1005 43.576 37.2002 43.4938 37.2367C42.8651 37.5161 42.0063 37.6332 41.31 37.6332C40.8369 37.6332 40.404 37.5766 39.9317 37.5766C39.9106 37.5766 40.1606 37.5766 40.0513 37.5766C39.3561 37.5766 38.6648 37.6332 37.9713 37.6332C37.3105 37.6332 36.6497 37.6332 35.9888 37.6332C35.6292 37.6332 35.2743 37.6898 34.9127 37.6898C34.5855 37.6898 34.3708 37.5928 34.063 37.5073C33.8834 37.4574 33.5828 37.3636 33.44 37.2367C33.3319 37.1406 33.17 36.9761 33.0435 36.9095C32.8272 36.7956 32.6012 36.6922 32.3638 36.6262C32.1211 36.5588 32.088 36.4218 31.8823 36.3305C31.3597 36.0982 30.9551 35.6674 30.4663 35.3959C30.2581 35.2802 30.1025 35.0765 29.9156 34.927C29.8193 34.85 29.779 34.8004 29.6891 34.7004C29.5743 34.573 29.709 34.6312 29.8433 34.6312C30.7644 34.6312 31.6359 34.957 32.5589 35.0308C32.8488 35.054 33.123 35.0843 33.418 35.0843C33.8364 35.0843 34.2418 34.9711 34.6609 34.9711C35.2924 34.9711 35.9238 34.9711 36.5553 34.9711C37.8411 34.9711 39.1242 34.9436 40.4069 34.9144C41.4004 34.8918 42.5461 34.6378 43.4655 35.0843C43.7803 35.2372 44.215 35.4808 44.57 35.4808C44.84 35.4808 45.1044 35.693 45.3347 35.8081C45.643 35.9623 45.9302 35.8978 46.2661 35.9938C46.6932 36.1158 45.4075 36.2738 44.9634 36.2738C44.0865 36.2738 43.2096 36.2738 42.3327 36.2738C41.6105 36.2738 40.9738 36.4823 40.2684 36.6105C39.5585 36.7396 38.7918 36.6821 38.072 36.771C36.6951 36.941 35.3501 37.0102 33.9623 37.0102C33.6014 37.0102 33.2683 36.8235 32.9302 36.7269C32.7912 36.6872 32.111 36.3001 32.2505 36.1605" stroke="#915107" stroke-linecap="round"/>
<path d="M31.6274 35.4808C32.5592 35.4808 33.466 35.5941 34.3997 35.5941C35.0522 35.5941 35.7046 35.5941 36.357 35.5941C36.7738 35.5941 37.1916 35.764 37.6188 35.764C38.1517 35.764 38.6845 35.764 39.2174 35.764C39.743 35.764 40.2485 35.4808 40.7719 35.4808C41.1138 35.4808 41.4558 35.4808 41.7977 35.4808C42.3065 35.4808 42.8152 35.4808 43.3239 35.4808C43.4162 35.4808 43.0453 35.4754 42.9809 35.484C42.608 35.5337 42.2679 35.6507 41.8827 35.6507C41.4474 35.6507 41.1244 35.747 40.7027 35.8333C40.0747 35.9617 39.3891 36.1888 38.7517 36.2172C38.2542 36.2393 37.7153 36.3244 37.2349 36.4311C36.8819 36.5096 36.4505 36.4437 36.0895 36.4437C35.7405 36.4437 35.3776 36.557 35.0543 36.557C34.7144 36.557 34.3746 36.557 34.0347 36.557C33.8746 36.557 33.7039 36.5258 33.5533 36.472C33.4426 36.4325 33.2442 36.3304 33.1284 36.3304C33.0201 36.3304 32.7603 36.2724 32.7603 36.4154C32.7603 36.5275 32.8606 36.6728 32.9554 36.7269C33.118 36.8199 33.1568 37.1804 33.1568 37.35C33.1568 37.8428 32.9344 37.4802 32.647 37.4633C32.6102 37.4611 32.3846 37.3724 32.4519 37.3531C32.5695 37.3195 32.7322 37.3847 32.8452 37.4098C33.071 37.4599 33.3695 37.4823 33.5816 37.5766C33.8111 37.6786 33.9441 38.0703 34.2329 38.0863C34.4945 38.1009 34.7165 38.1856 34.9693 38.1996C35.5055 38.2294 36.0611 38.3695 36.6119 38.3695C37.1615 38.3695 37.7193 38.4828 38.2828 38.4828C38.6528 38.4828 39.0027 38.3695 39.3621 38.3695C39.8353 38.3695 40.3096 38.3247 40.775 38.2531C42.093 38.0503 43.4537 37.8826 44.7116 37.4633" stroke="#915107" stroke-linecap="round"/>
<path d="M46.1277 36.8402C45.7244 37.3886 45.3604 37.8014 44.7683 38.1304C44.6742 38.1827 44.5341 38.2438 44.4284 38.2563C44.3358 38.2672 44.2572 38.3982 44.1704 38.423C43.9127 38.4967 43.5393 38.7094 43.2673 38.7094C42.9115 38.7094 42.5399 38.7883 42.2194 38.9485C42.0829 39.0168 41.9163 38.9991 41.7663 39.0367C41.5138 39.0998 41.2727 39.2149 41.0268 39.301C40.6682 39.4265 40.232 39.3891 39.853 39.3891C39.4086 39.3891 38.9814 39.4457 38.5377 39.4457C38.1107 39.4457 37.7536 39.4483 37.3482 39.3324C37.0554 39.2488 36.8575 39.2192 36.5427 39.2192C36.292 39.2192 36.0413 39.2192 35.7906 39.2192C35.5706 39.2192 35.1346 39.2984 34.941 39.1908C34.8158 39.1213 34.6526 39.1829 34.5161 39.1342C34.3341 39.0692 34.1288 39.0561 33.9371 39.0492C33.6124 39.0376 33.248 38.6691 33.0152 38.4828C32.9325 38.4167 32.9377 38.336 32.8452 38.2846C32.7217 38.2159 32.6007 38.2105 32.4771 38.1556C32.398 38.1205 32.2263 38.1125 32.1687 38.0549C32.1104 37.9966 32.1089 37.7748 32.0806 37.6898" stroke="#915107" stroke-linecap="round"/>
<path d="M42.1061 37.2367C41.1705 37.2367 40.2348 37.2367 39.2992 37.2367C39.1745 37.2367 38.7165 37.313 38.6384 37.1801C38.5923 37.1017 38.5713 37.008 38.6761 36.9661C38.8598 36.8926 39.1789 36.9535 39.3747 36.9535C39.6286 36.9535 39.8824 36.9535 40.1362 36.9535C40.8726 36.9535 41.6089 36.9535 42.3452 36.9535C42.918 36.9535 43.4587 36.747 44.0193 36.7269C44.0726 36.725 44.3167 36.7068 44.2585 36.7395C44.0776 36.8412 43.921 37.0064 43.7487 37.1234C43.3849 37.3706 43.0009 37.4837 42.6159 37.6458C42.0414 37.8877 41.5432 38.0957 41.0299 38.4702C40.9433 38.5335 40.7476 38.5556 40.8159 38.7094C40.8443 38.7731 40.9194 38.936 40.7908 38.936C40.1296 38.936 39.4469 38.8793 38.7768 38.8793C38.2219 38.8793 37.7331 38.9469 37.2223 39.1625C36.8414 39.3234 36.4563 39.559 36.0329 39.559C35.5587 39.559 35.3129 39.1581 34.9 39.0052C34.6607 38.9165 34.5279 38.7641 34.3336 38.6087C34.116 38.4346 33.1916 38.7792 33.1001 38.5961" stroke="#915107" stroke-linecap="round"/>
<path d="M28.9087 34.9711C29.28 35.2523 29.7526 35.4252 30.1548 35.6382C30.2833 35.7062 30.3871 35.8169 30.523 35.8773C30.6964 35.9544 30.7405 36.167 30.8911 36.2612C31.1133 36.4001 31.2789 36.6088 31.5142 36.7395C31.6787 36.8309 32.3072 37.0923 32.3072 37.2934" stroke="#915107" stroke-linecap="round"/>
<path d="M46.0144 36.9535C46.291 36.8995 46.7417 36.8274 46.9773 36.6703" stroke="#915107" stroke-linecap="round"/>
</g>
<defs>
<clipPath id="clip0_1_79">
<rect width="80" height="80" fill="white"/>
</clipPath>
</defs>
</svg>
